<?xml version="1.0" encoding="UTF-8" standalone="no"?>
<!-- Created with Inkscape (http://www.inkscape.org/) -->

<svg
   width="10.104206in"
   height="2.3389018in"
   viewBox="0 0 256.64684 59.408105"
   version="1.1"
   id="svg1"
   xmlns="http://www.w3.org/2000/svg"
   xmlns:svg="http://www.w3.org/2000/svg">
  <defs
     id="defs1">
    <clipPath
       clipPathUnits="userSpaceOnUse"
       id="clipPath3">
      <path
         d="M 0,612 H 792 V 0 H 0 Z"
         id="path3" />
    </clipPath>
    <clipPath
       clipPathUnits="userSpaceOnUse"
       id="clipPath5">
      <path
         d="M 0,612 H 792 V 0 H 0 Z"
         id="path5" />
    </clipPath>
    <clipPath
       clipPathUnits="userSpaceOnUse"
       id="clipPath7">
      <path
         d="M 0,612 H 792 V 0 H 0 Z"
         id="path7" />
    </clipPath>
    <clipPath
       clipPathUnits="userSpaceOnUse"
       id="clipPath9">
      <path
         d="M 0,612 H 792 V 0 H 0 Z"
         id="path9" />
    </clipPath>
    <clipPath
       clipPathUnits="userSpaceOnUse"
       id="clipPath11">
      <path
         d="M 0,612 H 792 V 0 H 0 Z"
         id="path11" />
    </clipPath>
    <clipPath
       clipPathUnits="userSpaceOnUse"
       id="clipPath13">
      <path
         d="M 0,612 H 792 V 0 H 0 Z"
         id="path13" />
    </clipPath>
    <clipPath
       clipPathUnits="userSpaceOnUse"
       id="clipPath15">
      <path
         d="M 0,612 H 792 V 0 H 0 Z"
         id="path15" />
    </clipPath>
    <clipPath
       clipPathUnits="userSpaceOnUse"
       id="clipPath17">
      <path
         d="M 0,612 H 792 V 0 H 0 Z"
         id="path17" />
    </clipPath>
    <clipPath
       clipPathUnits="userSpaceOnUse"
       id="clipPath19">
      <path
         d="M 0,612 H 792 V 0 H 0 Z"
         id="path19" />
    </clipPath>
    <clipPath
       clipPathUnits="userSpaceOnUse"
       id="clipPath21">
      <path
         d="M 0,612 H 792 V 0 H 0 Z"
         id="path21" />
    </clipPath>
    <clipPath
       clipPathUnits="userSpaceOnUse"
       id="clipPath23">
      <path
         d="M 0,612 H 792 V 0 H 0 Z"
         id="path23" />
    </clipPath>
    <clipPath
       clipPathUnits="userSpaceOnUse"
       id="clipPath25">
      <path
         d="M 0,612 H 792 V 0 H 0 Z"
         id="path25" />
    </clipPath>
    <clipPath
       clipPathUnits="userSpaceOnUse"
       id="clipPath27">
      <path
         d="M 0,612 H 792 V 0 H 0 Z"
         id="path27" />
    </clipPath>
    <clipPath
       clipPathUnits="userSpaceOnUse"
       id="clipPath29">
      <path
         d="M 0,612 H 792 V 0 H 0 Z"
         id="path29" />
    </clipPath>
    <clipPath
       clipPathUnits="userSpaceOnUse"
       id="clipPath31">
      <path
         d="M 0,612 H 792 V 0 H 0 Z"
         id="path31" />
    </clipPath>
    <clipPath
       clipPathUnits="userSpaceOnUse"
       id="clipPath33">
      <path
         d="M 0,612 H 792 V 0 H 0 Z"
         id="path33" />
    </clipPath>
    <clipPath
       clipPathUnits="userSpaceOnUse"
       id="clipPath35">
      <path
         d="M 0,612 H 792 V 0 H 0 Z"
         id="path35" />
    </clipPath>
    <clipPath
       clipPathUnits="userSpaceOnUse"
       id="clipPath37">
      <path
         d="M 0,612 H 792 V 0 H 0 Z"
         id="path37" />
    </clipPath>
    <clipPath
       clipPathUnits="userSpaceOnUse"
       id="clipPath39">
      <path
         d="M 0,612 H 792 V 0 H 0 Z"
         id="path39" />
    </clipPath>
    <clipPath
       clipPathUnits="userSpaceOnUse"
       id="clipPath41">
      <path
         d="M 0,612 H 792 V 0 H 0 Z"
         id="path41" />
    </clipPath>
    <clipPath
       clipPathUnits="userSpaceOnUse"
       id="clipPath43">
      <path
         d="M 0,612 H 792 V 0 H 0 Z"
         id="path43" />
    </clipPath>
    <clipPath
       clipPathUnits="userSpaceOnUse"
       id="clipPath45">
      <path
         d="M 0,612 H 792 V 0 H 0 Z"
         id="path45" />
    </clipPath>
    <clipPath
       clipPathUnits="userSpaceOnUse"
       id="clipPath47">
      <path
         d="M 0,612 H 792 V 0 H 0 Z"
         id="path47" />
    </clipPath>
    <clipPath
       clipPathUnits="userSpaceOnUse"
       id="clipPath49">
      <path
         d="M 0,612 H 792 V 0 H 0 Z"
         id="path49" />
    </clipPath>
    <clipPath
       clipPathUnits="userSpaceOnUse"
       id="clipPath51">
      <path
         d="M 0,612 H 792 V 0 H 0 Z"
         id="path51" />
    </clipPath>
    <clipPath
       clipPathUnits="userSpaceOnUse"
       id="clipPath53">
      <path
         d="M 0,612 H 792 V 0 H 0 Z"
         id="path53" />
    </clipPath>
    <clipPath
       clipPathUnits="userSpaceOnUse"
       id="clipPath57">
      <path
         d="M 0,612 H 792 V 0 H 0 Z"
         transform="matrix(1,0,0,-1,-421.99371,329.42381)"
         id="path57" />
    </clipPath>
    <clipPath
       clipPathUnits="userSpaceOnUse"
       id="clipPath59">
      <path
         d="M 0,612 H 792 V 0 H 0 Z"
         transform="matrix(1,0,0,-1,-739.62262,329.42381)"
         id="path59" />
    </clipPath>
  </defs>
  <g
     id="layer1"
     transform="translate(-10.224486,-41.399244)">
    <g
       id="group-MC0"
       transform="matrix(0.26458333,0,0,0.26458333,1.6078888,0.22970046)">
      <path
         id="path2"
         d="m 233.13,447.746 c -0.061,0.601 -0.185,1.201 -0.364,1.792 -1.241,4.094 -5.144,7.793 -9.605,8.843 -0.949,0.224 -5.711,1.219 -12.339,0.794 h -0.001 c -6.289,-0.402 -14.26,-2.081 -22.272,-6.922 10.688,-9.92 25.449,-15.802 32.985,-15.075 3.183,0.307 7.446,1.687 9.865,4.639 1.38,1.683 1.963,3.677 1.731,5.929"
         style="fill:#33b652;fill-opacity:1;fill-rule:nonzero;stroke:none"
         transform="matrix(1.3333333,0,0,-1.3333333,0,816)"
         clip-path="url(#clipPath3)" />
      <path
         id="path4"
         d="m 256.849,462.559 c -0.636,6.23 -6.353,12.338 -13.017,13.906 -2.396,0.564 -23.637,4.979 -44.958,-8.111 2.773,-2.604 5.772,-4.985 8.868,-7.137 8.491,1.003 14.81,-0.335 15.946,-0.602 5.623,-1.324 10.503,-6.29 11.565,-11.582 2.419,-0.413 4.603,-0.543 6.451,-0.365 4.142,0.399 9.695,2.2 12.856,6.059 1.823,2.223 2.593,4.858 2.289,7.832"
         style="fill:#33b652;fill-opacity:1;fill-rule:nonzero;stroke:none"
         transform="matrix(1.3333333,0,0,-1.3333333,0,816)"
         clip-path="url(#clipPath5)" />
      <path
         id="path6"
         d="m 235.086,449.066 c -0.351,0.066 -0.715,0.146 -1.074,0.219 v -0.001 c 0.36,-0.073 0.726,-0.157 1.074,-0.218"
         style="fill:#ffffff;fill-opacity:1;fill-rule:nonzero;stroke:none"
         transform="matrix(1.3333333,0,0,-1.3333333,0,816)"
         clip-path="url(#clipPath7)" />
      <path
         id="path8"
         d="m 209.222,460.236 c -0.493,0.327 -0.991,0.64 -1.48,0.981 0.481,-0.334 0.965,-0.661 1.451,-0.984 0.009,0 0.02,0.002 0.029,0.003"
         style="fill:#ffffff;fill-opacity:1;fill-rule:nonzero;stroke:none"
         transform="matrix(1.3333333,0,0,-1.3333333,0,816)"
         clip-path="url(#clipPath9)" />
      <path
         id="path10"
         d="m 235.253,449.033 v 0 c -0.054,0.009 -0.112,0.024 -0.167,0.033 0.056,-0.01 0.113,-0.024 0.167,-0.033"
         style="fill:#ffffff;fill-opacity:1;fill-rule:nonzero;stroke:none"
         transform="matrix(1.3333333,0,0,-1.3333333,0,816)"
         clip-path="url(#clipPath11)" />
      <path
         id="path12"
         d="m 232.768,449.537 -0.002,0.001 z"
         style="fill:#ffffff;fill-opacity:1;fill-rule:nonzero;stroke:none"
         transform="matrix(1.3333333,0,0,-1.3333333,0,816)"
         clip-path="url(#clipPath13)" />
      <path
         id="path14"
         d="m 210.822,459.175 c -0.001,10e-4 -0.004,0.003 -0.005,0.004 0.001,-10e-4 0.003,-0.003 0.004,-0.004 z"
         style="fill:#ffffff;fill-opacity:1;fill-rule:nonzero;stroke:none"
         transform="matrix(1.3333333,0,0,-1.3333333,0,816)"
         clip-path="url(#clipPath15)" />
      <path
         id="path16"
         d="m 256.849,462.559 c -0.636,6.23 -6.353,12.338 -13.017,13.906 -2.396,0.564 -23.637,4.979 -44.958,-8.111 2.773,-2.604 5.772,-4.985 8.868,-7.137 8.491,1.003 14.81,-0.335 15.946,-0.602 5.623,-1.324 10.503,-6.29 11.565,-11.582 2.419,-0.413 4.603,-0.543 6.451,-0.365 4.142,0.399 9.695,2.2 12.856,6.059 1.823,2.223 2.593,4.858 2.289,7.832"
         style="fill:#33b652;fill-opacity:1;fill-rule:nonzero;stroke:none"
         transform="matrix(1.3333333,0,0,-1.3333333,0,816)"
         clip-path="url(#clipPath17)" />
      <path
         id="path18"
         d="m 286.659,476.598 c -0.787,7.735 -7.88,15.317 -16.145,17.263 -2.959,0.697 -29.293,6.176 -55.612,-10.166 1.754,-1.661 3.586,-3.249 5.469,-4.766 12.638,2.208 22.382,0.148 23.987,-0.23 7.555,-1.779 14.045,-8.765 14.773,-15.907 0.103,-1.001 0.095,-1.968 -0.006,-2.905 3.299,-0.616 6.271,-0.83 8.747,-0.592 5.127,0.495 12.003,2.728 15.926,7.516 2.279,2.781 3.242,6.074 2.861,9.787"
         style="fill:#33b652;fill-opacity:1;fill-rule:nonzero;stroke:none"
         transform="matrix(1.3333333,0,0,-1.3333333,0,816)"
         clip-path="url(#clipPath19)" />
      <path
         id="path20"
         d="m 185.702,413.223 c 0,0 100.031,51.531 115.188,52.542 15.155,1.008 92.451,-42.943 92.451,-42.943 0,0 -72.243,32.334 -93.461,32.334 -21.22,0 -114.178,-41.933 -114.178,-41.933"
         style="fill:#0492d2;fill-opacity:1;fill-rule:nonzero;stroke:none"
         transform="matrix(1.3333333,0,0,-1.3333333,0,816)"
         clip-path="url(#clipPath21)" />
      <path
         id="path22"
         d="m 277.933,471.505 c 0,0 -1.149,8.031 -20.65,10.325"
         style="fill:#33b652;fill-opacity:1;fill-rule:nonzero;stroke:none"
         transform="matrix(1.3333333,0,0,-1.3333333,0,816)"
         clip-path="url(#clipPath23)" />
      <path
         id="path24"
         d="m 256.144,481.964 c -0.075,-0.63 0.376,-1.2 1.004,-1.273 18.154,-2.136 19.639,-9.295 19.652,-9.367 0.109,-0.616 0.694,-1.04 1.312,-0.941 0.617,0.099 1.044,0.665 0.956,1.284 -0.053,0.364 -1.505,8.932 -21.651,11.302 -0.629,0.074 -1.2,-0.376 -1.273,-1.005"
         style="fill:#ffffff;fill-opacity:1;fill-rule:nonzero;stroke:none"
         transform="matrix(1.3333333,0,0,-1.3333333,0,816)"
         clip-path="url(#clipPath25)" />
      <path
         id="path26"
         d="m 249.936,458.425 c 0,0 -0.936,6.554 -16.854,8.424"
         style="fill:#33b652;fill-opacity:1;fill-rule:nonzero;stroke:none"
         transform="matrix(1.3333333,0,0,-1.3333333,0,816)"
         clip-path="url(#clipPath27)" />
      <path
         id="path28"
         d="m 231.943,466.983 c -0.074,-0.629 0.377,-1.199 1.005,-1.273 14.611,-1.717 15.845,-7.414 15.857,-7.472 0.113,-0.613 0.7,-1.034 1.316,-0.932 0.614,0.102 1.039,0.664 0.95,1.281 -0.044,0.303 -1.251,7.45 -17.855,9.402 -0.629,0.074 -1.199,-0.377 -1.273,-1.006"
         style="fill:#ffffff;fill-opacity:1;fill-rule:nonzero;stroke:none"
         transform="matrix(1.3333333,0,0,-1.3333333,0,816)"
         clip-path="url(#clipPath29)" />
      <path
         id="path30"
         d="m 227.984,444.544 c 0,0 -0.732,5.115 -13.156,6.577"
         style="fill:#33b652;fill-opacity:1;fill-rule:nonzero;stroke:none"
         transform="matrix(1.3333333,0,0,-1.3333333,0,816)"
         clip-path="url(#clipPath31)" />
      <path
         id="path32"
         d="m 213.688,451.255 c -0.073,-0.63 0.377,-1.2 1.006,-1.274 11.16,-1.313 12.151,-5.587 12.16,-5.631 0.125,-0.608 0.712,-1.025 1.322,-0.919 0.612,0.106 1.032,0.661 0.945,1.276 -0.089,0.613 -1.231,6.033 -14.16,7.552 -0.628,0.075 -1.199,-0.376 -1.273,-1.004"
         style="fill:#ffffff;fill-opacity:1;fill-rule:nonzero;stroke:none"
         transform="matrix(1.3333333,0,0,-1.3333333,0,816)"
         clip-path="url(#clipPath33)" />
      <path
         id="path34"
         d="m 404.445,384.96 c -0.381,0.208 -0.99,0.314 -1.83,0.314 h -1.291 v -3.047 h 1.365 c 0.639,0 1.122,0.062 1.442,0.188 0.59,0.228 0.885,0.668 0.885,1.315 0,0.612 -0.19,1.021 -0.571,1.23 m -1.609,1.353 c 1.057,0 1.834,-0.101 2.328,-0.304 0.881,-0.363 1.32,-1.078 1.32,-2.142 0,-0.758 -0.277,-1.313 -0.834,-1.672 -0.296,-0.188 -0.707,-0.325 -1.236,-0.409 0.668,-0.106 1.156,-0.384 1.465,-0.836 0.309,-0.451 0.463,-0.892 0.463,-1.323 v -0.625 c 0,-0.196 0.008,-0.41 0.019,-0.634 0.014,-0.226 0.039,-0.374 0.073,-0.445 l 0.05,-0.105 h -1.394 c -0.008,0.028 -0.016,0.055 -0.022,0.084 -0.007,0.027 -0.013,0.061 -0.021,0.097 l -0.031,0.273 v 0.679 c 0,0.99 -0.272,1.642 -0.811,1.96 -0.32,0.184 -0.883,0.277 -1.685,0.277 h -1.196 v -3.37 h -1.47 v 8.495 z m -4.576,0.437 c -1.302,-1.304 -1.955,-2.876 -1.955,-4.723 0,-1.86 0.649,-3.444 1.945,-4.755 1.305,-1.31 2.889,-1.964 4.756,-1.964 1.861,0 3.447,0.654 4.75,1.964 1.305,1.311 1.957,2.895 1.957,4.755 0,1.847 -0.652,3.419 -1.957,4.723 -1.313,1.311 -2.897,1.965 -4.75,1.965 -1.852,0 -3.434,-0.654 -4.746,-1.965 m 10.222,-10.205 c -1.513,-1.517 -3.341,-2.277 -5.488,-2.277 -2.148,0 -3.973,0.76 -5.48,2.277 -1.5,1.512 -2.249,3.342 -2.249,5.494 0,2.128 0.756,3.949 2.27,5.46 1.506,1.503 3.324,2.256 5.459,2.256 2.147,0 3.975,-0.753 5.488,-2.256 1.512,-1.504 2.27,-3.325 2.27,-5.46 0,-2.144 -0.758,-3.975 -2.27,-5.494"
         style="fill:#33b652;fill-opacity:1;fill-rule:nonzero;stroke:none"
         transform="matrix(1.3333333,0,0,-1.3333333,0,816)"
         clip-path="url(#clipPath35)" />
      <path
         id="path36"
         d="m 36.504,403.335 c -0.455,-2.288 -0.91,-22.778 -0.91,-35.884 v -29.434 c 2.735,0 16.182,0 27.122,0.415 v -8.944 c -1.595,0 -35.441,1.039 -38.291,1.039 0.912,5.513 0.912,27.771 0.912,30.267 v 13.834 c 0,1.663 -0.229,26.731 -0.457,28.707 z"
         style="fill:#0492d2;fill-opacity:1;fill-rule:nonzero;stroke:none"
         transform="matrix(1.3333333,0,0,-1.3333333,0,816)"
         clip-path="url(#clipPath37)" />
      <path
         id="path38"
         d="m 96.493,376.727 14.311,-31.444 15.504,31.444 9.143,-1.452 -25.309,-48.377 -23.191,48.377 z"
         style="fill:#0492d2;fill-opacity:1;fill-rule:nonzero;stroke:none"
         transform="matrix(1.3333333,0,0,-1.3333333,0,816)"
         clip-path="url(#clipPath39)" />
      <path
         id="path40"
         d="m 171.626,366.689 c -3.047,3.023 -6.625,3.991 -10.733,3.991 -8.349,0 -18.286,-6.652 -18.286,-15.964 0,-0.848 0,-1.693 0.264,-2.54 z m -26.502,-21.045 c 2.783,-5.079 9.144,-9.311 16.034,-9.311 5.036,0 9.938,1.571 15.107,4.474 l 1.59,-7.377 c -5.831,-2.903 -11.926,-4.354 -16.697,-4.354 -15.239,0 -26.503,11.731 -26.503,24.189 0,12.457 11.264,24.188 26.503,24.188 10.998,0 18.42,-5.805 22.395,-12.942 z"
         style="fill:#0492d2;fill-opacity:1;fill-rule:nonzero;stroke:none"
         transform="matrix(1.3333333,0,0,-1.3333333,0,816)"
         clip-path="url(#clipPath41)" />
      <path
         id="path42"
         d="m 201.097,362.355 c 0,-3.953 0.343,-30.267 0.57,-31.828 h -11.053 c 0.454,2.496 0.227,35.468 0.227,37.653 v 8.528 c 0,3.121 -0.227,24.651 -0.57,26.627 5.355,0 14.93,-0.106 23.704,-1.041 15.045,-1.663 23.59,-7.488 23.59,-16.33 0,-8.84 -6.496,-15.705 -15.84,-21.113 2.849,-3.537 23.361,-26.731 26.554,-29.851 l -8.663,-6.345 c -1.254,1.456 -26.895,32.139 -30.312,36.507 5.696,2.809 17.093,9.153 17.093,19.346 0,4.681 -3.761,11.649 -25.3,11.858 z"
         style="fill:#33b652;fill-opacity:1;fill-rule:nonzero;stroke:none"
         transform="matrix(1.3333333,0,0,-1.3333333,0,816)"
         clip-path="url(#clipPath43)" />
      <path
         id="path44"
         d="m 277.126,336.449 c 10.681,0 18.383,7.895 18.383,17.271 0,9.374 -7.702,17.27 -18.383,17.27 -10.676,0 -18.382,-7.896 -18.382,-17.27 0,-9.376 7.706,-17.271 18.382,-17.271 m 0,41.943 c 15.546,0 27.036,-11.966 27.036,-24.672 0,-12.707 -11.49,-24.673 -27.036,-24.673 -15.544,0 -27.03,11.966 -27.03,24.673 0,12.706 11.486,24.672 27.03,24.672"
         style="fill:#33b652;fill-opacity:1;fill-rule:nonzero;stroke:none"
         transform="matrix(1.3333333,0,0,-1.3333333,0,816)"
         clip-path="url(#clipPath45)" />
      <path
         id="path46"
         d="m 337.138,336.449 c 10.679,0 18.383,7.895 18.383,17.271 0,9.374 -7.704,17.27 -18.383,17.27 -10.679,0 -18.383,-7.896 -18.383,-17.27 0,-9.376 7.704,-17.271 18.383,-17.271 m 0,41.943 c 15.546,0 27.033,-11.966 27.033,-24.672 0,-12.707 -11.487,-24.673 -27.033,-24.673 -15.545,0 -27.034,11.966 -27.034,24.673 0,12.706 11.489,24.672 27.034,24.672"
         style="fill:#33b652;fill-opacity:1;fill-rule:nonzero;stroke:none"
         transform="matrix(1.3333333,0,0,-1.3333333,0,816)"
         clip-path="url(#clipPath47)" />
      <path
         id="path48"
         d="m 372.819,382.488 c 0,12.461 5.948,19.615 20.816,20.725 l 0.676,-7.402 c -9.19,-1.603 -12.842,-5.18 -12.842,-13.076 v -5.824 h 12.166 v -6.908 h -12.166 v -38.735 l -8.65,-1.481 z"
         style="fill:#33b652;fill-opacity:1;fill-rule:nonzero;stroke:none"
         transform="matrix(1.3333333,0,0,-1.3333333,0,816)"
         clip-path="url(#clipPath49)" />
      <path
         id="path50"
         d="m 71.315,375.275 8.48,1.452 v -45.474 l -8.48,-1.452 z"
         style="fill:#0492d2;fill-opacity:1;fill-rule:nonzero;stroke:none"
         transform="matrix(1.3333333,0,0,-1.3333333,0,816)"
         clip-path="url(#clipPath51)" />
      <path
         id="path52"
         d="m 79.549,388.962 c 0,-2.486 -2.015,-4.502 -4.501,-4.502 -2.485,0 -4.501,2.016 -4.501,4.502 0,2.486 2.016,4.501 4.501,4.501 2.486,0 4.501,-2.015 4.501,-4.501"
         style="fill:#0492d2;fill-opacity:1;fill-rule:nonzero;stroke:none"
         transform="matrix(1.3333333,0,0,-1.3333333,0,816)"
         clip-path="url(#clipPath53)" />
    </g>
    <g
       id="group-MC2"
       transform="matrix(0.26458333,0,0,0.26458333,1.6078888,0.22970046)">
      <path
         id="path56"
         d="m 2.0404797,-25.264677 c 0,15.3632817 13.1953123,26.5312504 27.2343753,26.5312504 14.039062,0 27.234375,-11.1679687 27.234375,-26.5312504 0,-15.375 -13.195313,-26.542968 -27.234375,-26.542968 -14.039063,0 -27.2343753,11.167968 -27.2343753,26.542968 z m 7.7226562,0 c 0,-10.957031 9.1171871,-19.382812 19.5117191,-19.382812 10.382812,0 19.511718,8.425781 19.511718,19.382812 0,10.945313 -9.128906,19.3710942 -19.511718,19.3710942 -10.394532,0 -19.5117191,-8.4257812 -19.5117191,-19.3710942 z M 70.261183,-33.127958 103.68306,1.8993859 V -50.82327 l -7.441408,0.5625 v 32.917968 L 62.819777,-51.807645 V 0.28219844 l 7.441406,-0.5625 z m 50.683597,33.41015644 7.72265,-0.5625 V -43.663114 h 12.91407 v -6.878906 h -32.77735 l -2.25,6.878906 h 14.39063 z m 36.99023,-25.47656244 6.87891,-12.433594 6.03515,12.433594 z M 143.75532,1.2665734 154.57173,-18.877958 h 19.08984 L 183.90376,1.2665734 191.5561,-0.28030156 164.81392,-51.807645 136.73579,-1.0537391 Z m 58.04883,-45.4921874 h 4.00781 c 5.05079,0 9.32813,3.023437 9.32813,8.285156 0,4.839844 -3.71484,8.285156 -9.25781,8.285156 h -4.07813 z m -7.72265,44.50781244 7.72265,-0.5625 V -22.88577 h 0.14063 l 17.41406,24.1523434 7.08984,-3.234375 -15.65625,-20.7070314 c 7.44141,-1.195312 11.78907,-6.667969 11.78907,-13.476562 0,-8.003907 -5.54297,-14.390625 -17.61329,-14.390625 H 194.0815 Z m 35.09765,0 7.72266,-0.5625 V -50.82327 l -7.72266,0.5625 z M 242.87544,-25.264677 c 0,15.3632817 13.19531,26.5312504 27.23438,26.5312504 14.03906,0 27.23437,-11.1679687 27.23437,-26.5312504 0,-15.375 -13.19531,-26.542968 -27.23437,-26.542968 -14.03907,0 -27.23438,11.167968 -27.23438,26.542968 z m 7.72266,0 c 0,-10.957031 9.11718,-19.382812 19.51172,-19.382812 10.38281,0 19.51171,8.425781 19.51171,19.382812 0,10.945313 -9.1289,19.3710942 -19.51171,19.3710942 -10.39454,0 -19.51172,-8.4257812 -19.51172,-19.3710942 z m 0,0"
         style="fill:#0492d2;fill-opacity:1;fill-rule:nonzero;stroke:none"
         aria-label="ONTARIO "
         transform="matrix(1.3333333,0,0,1.3333333,562.65827,376.76827)"
         clip-path="url(#clipPath57)" />
      <path
         id="path58"
         d="m 1.1840406,0.08297969 2.3085938,-0.1640625 V -15.245145 l -2.3085938,0.164062 z m 4.3945313,0 2.0625,-0.1640625 V -4.4053016 c 0,-1.0664062 0.5273437,-1.828125 1.3359375,-1.828125 0.796875,0 1.3007816,0.5742188 1.3007816,1.6640625 v 4.65234379 l 2.0625,-0.1640625 V -5.8349891 c 0,-1.5351562 -1.183594,-2.4609375 -2.6132816,-2.4609375 -0.796875,0 -1.5351563,0.2695313 -2.0390625,1.1953125 h -0.046875 v -1.03125 l -2.0625,0.1757813 z M 21.015095,-7.3115516 c -0.902343,-0.5390625 -1.792968,-0.984375 -3.070312,-0.984375 -2.0625,0 -4.148438,1.5820313 -4.148438,4.125 0,2.765625 1.828125,4.42968754 4.289063,4.42968754 0.808594,0 2.238281,-0.31640625 2.988281,-0.99609375 L 20.253377,-2.5068641 c -0.667969,0.6328125 -1.300782,0.8671875 -2.144532,0.8671875 -1.21875,0 -2.25,-0.8203125 -2.25,-2.4257812 0,-1.3828125 0.925782,-2.3320313 2.4375,-2.3320313 0.703125,0 1.242188,0.2695313 1.734375,0.7148438 z m 2.003907,7.3125000375 h 2.308593 V -2.3193641 h -2.308593 z m 0,0"
         style="fill:#0492d2;fill-opacity:1;fill-rule:nonzero;stroke:none"
         aria-label="Inc."
         transform="matrix(1.3333333,0,0,1.3333333,968.80044,375.90012)"
         clip-path="url(#clipPath59)" />
    </g>
  </g>
</svg>
