<svg xmlns="http://www.w3.org/2000/svg" xmlns:xlink="http://www.w3.org/1999/xlink" xmlns:inkscape="http://www.inkscape.org/namespaces/inkscape" version="1.1" width="792" height="612" viewBox="120 160 668 150">
<defs>
<clipPath id="clip_1">
<path transform="matrix(0,.12,.12,0,0,0)" d="M0 0H5100V6600H0ZM2527.609 1614.13H2993.913V4971.521H2527.609V1614.13Z" clip-rule="evenodd"/>
</clipPath>
</defs>
<g clip-path="url(#clip_1)">
<path transform="matrix(0,.12,.12,0,0,0)" d="M1368.78 1942.75C1363.77 1942.24 1358.77 1941.21 1353.85 1939.71 1319.73 1929.37 1288.91 1896.85 1280.16 1859.67 1278.29 1851.77 1270 1812.08 1273.54 1756.85V1756.84C1276.89 1704.43 1290.88 1638.01 1331.22 1571.24 1413.89 1660.3 1462.91 1783.31 1456.85 1846.11 1454.29 1872.64 1442.79 1908.16 1418.19 1928.32 1404.16 1939.82 1387.55 1944.68 1368.78 1942.75" fill="#00b159"/>
<path transform="matrix(0,.12,.12,0,0,0)" d="M1245.34 2140.41C1193.42 2135.11 1142.52 2087.46 1129.46 2031.93 1124.76 2011.96 1087.96 1834.96 1197.05 1657.28 1218.75 1680.39 1238.59 1705.38 1256.52 1731.18 1248.16 1801.94 1259.32 1854.6 1261.54 1864.07 1272.57 1910.92 1313.96 1951.59 1358.05 1960.44 1361.5 1980.6 1362.58 1998.8 1361.1 2014.2 1357.77 2048.71 1342.77 2094.99 1310.61 2121.33 1292.08 2136.52 1270.12 2142.94 1245.34 2140.41" fill="#00b159"/>
<path transform="matrix(0,.12,.12,0,0,0)" d="M1357.78 1959.05C1357.23 1956.12 1356.57 1953.09 1355.96 1950.1 1356.57 1953.1 1357.27 1956.15 1357.78 1959.05" fill="#ffffff"/>
<path transform="matrix(0,.12,.12,0,0,0)" d="M1264.7 1743.52C1261.98 1739.41 1259.36 1735.26 1256.52 1731.18 1259.3 1735.19 1262.03 1739.22 1264.72 1743.27 1264.72 1743.35 1264.71 1743.44 1264.7 1743.52" fill="#ffffff"/>
<path transform="matrix(0,.12,.12,0,0,0)" d="M1358.05 1960.44V1960.44C1357.98 1959.99 1357.86 1959.51 1357.78 1959.05 1357.86 1959.52 1357.98 1959.99 1358.05 1960.44" fill="#ffffff"/>
<path transform="matrix(0,.12,.12,0,0,0)" d="M1353.86 1939.73 1353.85 1939.71 1353.86 1939.73" fill="#ffffff"/>
<path transform="matrix(0,.12,.12,0,0,0)" d="M1273.54 1756.85C1273.53 1756.84 1273.52 1756.81 1273.51 1756.8 1273.52 1756.81 1273.53 1756.83 1273.54 1756.84V1756.85" fill="#ffffff"/>
<path transform="matrix(0,.12,.12,0,0,0)" d="M1245.34 2140.41C1193.42 2135.11 1142.52 2087.46 1129.46 2031.93 1124.76 2011.96 1087.96 1834.96 1197.05 1657.28 1218.75 1680.39 1238.59 1705.38 1256.52 1731.18 1248.16 1801.94 1259.32 1854.6 1261.54 1864.07 1272.57 1910.92 1313.96 1951.59 1358.05 1960.44 1361.5 1980.6 1362.58 1998.8 1361.1 2014.2 1357.77 2048.71 1342.77 2094.99 1310.61 2121.33 1292.08 2136.52 1270.12 2142.94 1245.34 2140.41" fill="#00b159"/>
<path transform="matrix(0,.12,.12,0,0,0)" d="M1128.35 2388.82C1063.89 2382.27 1000.71 2323.16 984.488 2254.28 978.68 2229.62 933.023 2010.17 1069.21 1790.85 1083.05 1805.46 1096.28 1820.73 1108.92 1836.42 1090.52 1941.74 1107.69 2022.94 1110.84 2036.31 1125.66 2099.27 1183.88 2153.36 1243.4 2159.42 1251.74 2160.28 1259.8 2160.21 1267.61 2159.37 1272.74 2186.86 1274.52 2211.63 1272.54 2232.27 1268.41 2274.99 1249.8 2332.29 1209.91 2364.98 1186.73 2383.97 1159.29 2392 1128.35 2388.82" fill="#00b159"/>
<path transform="matrix(0,.12,.12,0,0,0)" d="M1656.47 1547.52C1656.47 1547.52 1227.05 2381.11 1218.62 2507.41 1210.22 2633.71 1576.48 3277.84 1576.48 3277.84 1576.48 3277.84 1307.03 2675.81 1307.03 2499 1307.03 2322.16 1656.47 1547.52 1656.47 1547.52" fill="#0092cf"/>
<path transform="matrix(0,.12,.12,0,0,0)" d="M1170.79 2316.11C1170.79 2316.11 1103.86 2306.53 1084.75 2144.02" fill="#00b159"/>
<path transform="matrix(0,.12,.12,0,0,0)" d="M1083.63 2134.53C1088.88 2133.91 1093.63 2137.66 1094.24 2142.9 1112.04 2294.18 1171.7 2306.55 1172.3 2306.66 1177.43 2307.57 1180.96 2312.45 1180.14 2317.6 1179.32 2322.74 1174.6 2326.3 1169.44 2325.56 1166.41 2325.12 1095.01 2313.02 1075.26 2145.14 1074.64 2139.9 1078.39 2135.14 1083.63 2134.53" fill="#deddd5"/>
<path transform="matrix(0,.12,.12,0,0,0)" d="M1279.79 2082.8C1279.79 2082.8 1225.17 2075 1209.59 1942.35" fill="#00b159"/>
<path transform="matrix(0,.12,.12,0,0,0)" d="M1208.47 1932.86C1213.71 1932.24 1218.46 1936 1219.08 1941.23 1233.39 2062.99 1280.86 2073.27 1281.35 2073.37 1286.46 2074.31 1289.96 2079.21 1289.11 2084.34 1288.27 2089.46 1283.58 2093 1278.44 2092.26 1275.91 2091.89 1216.36 2081.83 1200.09 1943.46 1199.47 1938.22 1203.23 1933.47 1208.47 1932.86" fill="#deddd5"/>
<path transform="matrix(0,.12,.12,0,0,0)" d="M1395.46 1899.86C1395.46 1899.86 1352.84 1893.77 1340.66 1790.23" fill="#00b159"/>
<path transform="matrix(0,.12,.12,0,0,0)" d="M1339.54 1780.73C1344.79 1780.12 1349.54 1783.87 1350.16 1789.11 1361.1 1882.11 1396.71 1890.37 1397.08 1890.45 1402.15 1891.49 1405.62 1896.38 1404.74 1901.46 1403.86 1906.56 1399.23 1910.06 1394.11 1909.34 1389 1908.6 1343.83 1899.08 1331.17 1791.34 1330.55 1786.11 1334.3 1781.35 1339.54 1780.73" fill="#deddd5"/>
<path transform="matrix(0,.12,.12,0,0,0)" d="M1892 3370.37C1890.27 3367.2 1889.38 3362.12 1889.38 3355.12V3344.36H1914.77V3355.74C1914.77 3361.06 1914.26 3365.09 1913.21 3367.76 1911.3 3372.67 1907.64 3375.13 1902.25 3375.13 1897.15 3375.13 1893.74 3373.55 1892 3370.37ZM1880.72 3356.96C1880.72 3365.77 1881.56 3372.25 1883.26 3376.36 1886.28 3383.71 1892.24 3387.36 1901.11 3387.36 1907.42 3387.36 1912.05 3385.05 1915.04 3380.41 1916.61 3377.95 1917.75 3374.52 1918.45 3370.11 1919.33 3375.68 1921.65 3379.75 1925.41 3382.32 1929.17 3384.9 1932.85 3386.18 1936.44 3386.18H1941.65C1943.28 3386.18 1945.07 3386.25 1946.93 3386.34 1948.81 3386.46 1950.05 3386.66 1950.64 3386.95L1951.52 3387.36V3375.75C1951.28 3375.68 1951.05 3375.61 1950.82 3375.56 1950.59 3375.51 1950.3 3375.46 1950.01 3375.39L1947.73 3375.13H1942.07C1933.82 3375.13 1928.39 3372.86 1925.74 3368.37 1924.21 3365.71 1923.44 3361.02 1923.44 3354.33V3344.36H1951.52V3332.11H1880.72V3356.96ZM1877.08 3318.83C1887.95 3307.98 1901.05 3302.54 1916.44 3302.54 1931.94 3302.54 1945.14 3307.95 1956.06 3318.75 1966.98 3329.62 1972.43 3342.82 1972.43 3358.38 1972.43 3373.89 1966.98 3387.11 1956.06 3397.96 1945.14 3408.84 1931.94 3414.27 1916.44 3414.27 1901.05 3414.27 1887.95 3408.84 1877.08 3397.96 1866.16 3387.02 1860.71 3373.82 1860.71 3358.38 1860.71 3342.95 1866.16 3329.77 1877.08 3318.83ZM1962.12 3404.02C1974.77 3391.41 1981.1 3376.17 1981.1 3358.28 1981.1 3340.38 1974.77 3325.17 1962.12 3312.61 1949.52 3300.11 1934.27 3293.87 1916.34 3293.87 1898.61 3293.87 1883.43 3300.17 1870.84 3312.79 1858.31 3325.34 1852.04 3340.49 1852.04 3358.28 1852.04 3376.17 1858.31 3391.41 1870.84 3404.02 1883.37 3416.61 1898.55 3422.93 1916.34 3422.93 1934.21 3422.93 1949.46 3416.61 1962.12 3404.02" fill="#00b159"/>
<path transform="matrix(0,.12,.12,0,0,0)" d="M1738.87 304.203C1757.94 300.406 1928.69 296.613 2037.91 296.613H2283.19C2283.19 319.402 2283.19 431.465 2279.73 522.629H2354.27C2354.27 509.34 2345.61 227.289 2345.61 203.543 2299.66 211.141 2114.18 211.141 2093.38 211.141H1978.1C1964.24 211.141 1755.34 209.234 1738.87 207.336V304.203" fill="#0092cf"/>
<path transform="matrix(0,.12,.12,0,0,0)" d="M1960.61 804.109 2222.64 923.363 1960.61 1052.57 1972.71 1128.76 2375.85 917.848 1972.71 724.59 1960.61 804.109" fill="#0092cf"/>
<path transform="matrix(0,.12,.12,0,0,0)" d="M2044.26 1430.21C2019.06 1404.82 2011 1375.01 2011 1340.77 2011 1271.2 2066.43 1188.39 2144.03 1188.39 2151.1 1188.39 2158.14 1188.39 2165.2 1190.59L2044.26 1430.21ZM2219.63 1209.36C2261.96 1232.55 2297.22 1285.57 2297.22 1342.98 2297.22 1384.95 2284.13 1425.8 2259.94 1468.87L2321.41 1482.12C2345.61 1433.53 2357.7 1382.74 2357.7 1342.98 2357.7 1215.99 2259.94 1122.12 2156.12 1122.12 2052.31 1122.12 1954.55 1215.99 1954.55 1342.98 1954.55 1434.63 2002.93 1496.48 2062.41 1529.61L2219.63 1209.36" fill="#0092cf"/>
<path transform="matrix(0,.12,.12,0,0,0)" d="M2080.37 1675.8C2113.31 1675.8 2332.6 1678.66 2345.61 1680.55V1588.45C2324.8 1592.23 2050.04 1590.34 2031.83 1590.34H1960.77C1934.76 1590.34 1755.34 1588.45 1738.87 1585.59 1738.87 1630.21 1739.76 1710.01 1747.55 1783.12 1761.41 1908.5 1809.95 1979.71 1883.63 1979.71 1957.3 1979.71 2014.51 1925.57 2059.57 1847.71 2089.05 1871.45 2282.33 2042.38 2308.33 2068.99L2361.21 1996.8C2349.07 1986.35 2093.38 1772.67 2056.98 1744.2 2033.57 1791.66 1980.71 1886.64 1895.77 1886.64 1856.76 1886.64 1798.69 1855.3 1796.95 1675.8H2080.37" fill="#00b159"/>
<path transform="matrix(0,.12,.12,0,0,0)" d="M2296.26 2309.38C2296.26 2398.39 2230.46 2462.57 2152.33 2462.57 2074.21 2462.57 2008.41 2398.39 2008.41 2309.38 2008.41 2220.41 2074.21 2156.2 2152.33 2156.2 2230.46 2156.2 2296.26 2220.41 2296.26 2309.38ZM1946.73 2309.38C1946.73 2438.93 2046.45 2534.68 2152.33 2534.68 2258.22 2534.68 2357.94 2438.93 2357.94 2309.38 2357.94 2179.85 2258.22 2084.13 2152.33 2084.13 2046.45 2084.13 1946.73 2179.85 1946.73 2309.38" fill="#00b159"/>
<path transform="matrix(0,.12,.12,0,0,0)" d="M2296.26 2809.48C2296.26 2898.47 2230.46 2962.67 2152.33 2962.67 2074.21 2962.67 2008.41 2898.47 2008.41 2809.48 2008.41 2720.49 2074.21 2656.29 2152.33 2656.29 2230.46 2656.29 2296.26 2720.49 2296.26 2809.48ZM1946.73 2809.48C1946.73 2939.03 2046.45 3034.75 2152.33 3034.75 2258.22 3034.75 2357.94 2939.03 2357.94 2809.48 2357.94 2679.94 2258.22 2584.2 2152.33 2584.2 2046.45 2584.2 1946.73 2679.94 1946.73 2809.48" fill="#00b159"/>
<path transform="matrix(0,.12,.12,0,0,0)" d="M1912.6 3106.82C1808.76 3106.82 1749.14 3156.39 1739.89 3280.29L1801.57 3285.92C1814.93 3209.34 1844.74 3178.91 1910.54 3178.91H1959.07V3280.29H2016.64V3178.91H2339.43L2351.77 3106.82H1912.6" fill="#00b159"/>
<path transform="matrix(0,.12,.12,0,0,0)" d="M1972.71 594.289 1960.61 664.961H2339.55L2351.66 594.289H1972.71" fill="#0092cf"/>
<path transform="matrix(0,.12,.12,0,0,0)" d="M1858.65 662.906C1879.36 662.906 1896.16 646.117 1896.16 625.398 1896.16 604.684 1879.36 587.895 1858.65 587.895 1837.93 587.895 1821.14 604.684 1821.14 625.398 1821.14 646.117 1837.93 662.906 1858.65 662.906" fill="#0092cf"/>
<text fill="#0092cf" xml:space="preserve" transform="matrix(.9999996 0 0 .9999996 0 0)" font-size="70.1945" font-family="KabelLTStd-Heavy"><tspan y="282.576" x="421.994 480.5362 529.9531 560.13699 612.1509 647.24856 662.8315 721.3729">ONTARIO </tspan></text>
<text fill="#0092cf" xml:space="preserve" transform="matrix(.9999996 0 0 .9999996 0 0)" font-size="21.0583" font-family="KabelLTStd-Heavy"><tspan y="282.576" x="739.623 744.2979 752.86868 761.0603">Inc.</tspan></text>
</g>
</svg>
